STARTFONT 2.1
FONT -Bitstream-Terminal-Bold-R-Double Wide--18-140-100-100-C-220-ISO8859-1
SIZE 14 100 100
FONTBOUNDINGBOX 22 20 0 -5

STARTPROPERTIES 25
CHARSET_REGISTRY "ISO8859"
CHARSET_ENCODING "1"
CAP_HEIGHT 11
X_HEIGHT 9
AVERAGE_WIDTH 220
FONTNAME_REGISTRY ""
FAMILY_NAME "Terminal"
FOUNDRY "Bitstream"
WEIGHT_NAME "Bold"
SETWIDTH_NAME "Double Wide"
SLANT "R"
ADD_STYLE_NAME ""
PIXEL_SIZE 18
POINT_SIZE 140
RESOLUTION_X 100
RESOLUTION_Y 100
SPACING "C"
CHARSET_COLLECTIONS "ASCII ISO8859-1"
FULL_NAME "Terminal Bold Double Wide"
COPYRIGHT "Copyright (c) 1988 Bitstream, Inc., Copyright 1990 Digital Equipment Corp. All rights reserved."
WEIGHT 10
QUAD_WIDTH 22
DEFAULT_CHAR 159
FONT_DESCENT 5
FONT_ASCENT 15
ENDPROPERTIES

CHARS 194

STARTCHAR space
ENCODING 32
SWIDTH 1131 0
DWIDTH 22 0
BBX 1 1 0 0
BITMAP
00
ENDCHAR

STARTCHAR exclam
ENCODING 33
SWIDTH 1131 0
DWIDTH 22 0
BBX 10 11 6 0
BITMAP
3F00
3F00
3F00
3F00
3F00
3F00
3F00
0000
3F00
FFC0
3F00
ENDCHAR

STARTCHAR quotedbl
ENCODING 34
SWIDTH 1131 0
DWIDTH 22 0
BBX 12 6 5 7
BITMAP
F0F0
F0F0
F0F0
F0F0
F0F0
F0F0
ENDCHAR

STARTCHAR numbersign
ENCODING 35
SWIDTH 1131 0
DWIDTH 22 0
BBX 22 14 0 -3
BITMAP
1F87E0
1F87E0
1F87E0
1F87E0
FFFFFC
FFFFFC
1F87E0
1F87E0
FFFFFC
FFFFFC
1F87E0
1F87E0
1F87E0
1F87E0
ENDCHAR

STARTCHAR dollar
ENCODING 36
SWIDTH 1131 0
DWIDTH 22 0
BBX 18 16 2 -3
BITMAP
00F000
00F000
1FF3C0
7FFFC0
FC0FC0
FC03C0
7FC000
3FFC00
00FF80
F00FC0
FC0FC0
FFFFC0
F3FF00
03C000
03C000
03C000
ENDCHAR

STARTCHAR percent
ENCODING 37
SWIDTH 1131 0
DWIDTH 22 0
BBX 20 12 1 -1
BITMAP
3FC000
FFF000
F0F0E0
FFF380
3FCE00
007800
03C000
0E3FC0
38FFF0
E0F0F0
00FFF0
003FC0
ENDCHAR

STARTCHAR ampersand
ENCODING 38
SWIDTH 1131 0
DWIDTH 22 0
BBX 18 11 2 0
BITMAP
0FF300
1FFF00
3F0F00
1F0000
0F83C0
3FE3C0
7DF300
FC7F00
FC3F00
7FFFC0
3FF3C0
ENDCHAR

STARTCHAR quoteright
ENCODING 39
SWIDTH 1131 0
DWIDTH 22 0
BBX 10 5 6 8
BITMAP
3FC0
3F00
3C00
FC00
F000
ENDCHAR

STARTCHAR parenleft
ENCODING 40
SWIDTH 1131 0
DWIDTH 22 0
BBX 11 16 5 -3
BITMAP
01E0
0780
1F00
3E00
7E00
7C00
FC00
FC00
FC00
FC00
7C00
7E00
3E00
1F00
0780
01E0
ENDCHAR

STARTCHAR parenright
ENCODING 41
SWIDTH 1131 0
DWIDTH 22 0
BBX 11 16 5 -3
BITMAP
F000
3C00
1F00
0F80
0FC0
07C0
07E0
07E0
07E0
07E0
07C0
0FC0
0F80
1F00
3C00
F000
ENDCHAR

STARTCHAR asterisk
ENCODING 42
SWIDTH 1131 0
DWIDTH 22 0
BBX 18 7 2 2
BITMAP
03F000
03F000
F3F3C0
FFFFC0
0FFC00
3F3F00
3C0F00
ENDCHAR

STARTCHAR plus
ENCODING 43
SWIDTH 1131 0
DWIDTH 22 0
BBX 18 10 2 0
BITMAP
03F000
03F000
03F000
03F000
FFFFC0
FFFFC0
03F000
03F000
03F000
03F000
ENDCHAR

STARTCHAR comma
ENCODING 44
SWIDTH 1131 0
DWIDTH 22 0
BBX 10 6 6 -3
BITMAP
3FC0
3F00
3F00
FC00
FC00
F000
ENDCHAR

STARTCHAR minus
ENCODING 45
SWIDTH 1131 0
DWIDTH 22 0
BBX 16 2 3 4
BITMAP
FFFF
FFFF
ENDCHAR

STARTCHAR period
ENCODING 46
SWIDTH 1131 0
DWIDTH 22 0
BBX 8 4 7 0
BITMAP
3C
FF
FF
3C
ENDCHAR

STARTCHAR slash
ENCODING 47
SWIDTH 1131 0
DWIDTH 22 0
BBX 18 14 2 -2
BITMAP
0007C0
000F80
001F00
003E00
007C00
00F800
01F000
03E000
07C000
0F8000
1F0000
3E0000
7C0000
F80000
ENDCHAR

STARTCHAR zero
ENCODING 48
SWIDTH 1131 0
DWIDTH 22 0
BBX 19 11 1 0
BITMAP
07FC00
1FFF00
3E0F80
7C07C0
FC07E0
FC07E0
FC07E0
7C07C0
3E0F80
1FFF00
07FC00
ENDCHAR

STARTCHAR one
ENCODING 49
SWIDTH 1131 0
DWIDTH 22 0
BBX 16 11 3 0
BITMAP
0FE0
3FE0
FFE0
E7E0
07E0
07E0
07E0
07E0
07E0
FFFF
FFFF
ENDCHAR

STARTCHAR two
ENCODING 50
SWIDTH 1131 0
DWIDTH 22 0
BBX 17 11 2 0
BITMAP
1FFC00
FFFF00
F01F80
F01F80
003F00
00FC00
03F000
0F8000
3F0780
FFFF80
FFFF80
ENDCHAR

STARTCHAR three
ENCODING 51
SWIDTH 1131 0
DWIDTH 22 0
BBX 17 11 2 0
BITMAP
1FFC00
FFFF00
E01F80
001F00
03FC00
03FF00
001F80
001F80
F01F80
FFFF00
3FFC00
ENDCHAR

STARTCHAR four
ENCODING 52
SWIDTH 1131 0
DWIDTH 22 0
BBX 16 11 3 0
BITMAP
03FC
07FC
0EFC
1CFC
38FC
70FC
FFFF
FFFF
00FC
00FC
00FC
ENDCHAR

STARTCHAR five
ENCODING 53
SWIDTH 1131 0
DWIDTH 22 0
BBX 17 11 2 0
BITMAP
FFFF80
FFFF80
FC0000
FC0000
FFFE00
FFFF80
E01F80
001F80
F01F80
FFFF80
3FFE00
ENDCHAR

STARTCHAR six
ENCODING 54
SWIDTH 1131 0
DWIDTH 22 0
BBX 17 11 2 0
BITMAP
07FF00
1FFF00
3F0000
7C0000
7CFC00
FFFF00
FE1F80
FC0F80
FE1F80
7FFF00
1FFC00
ENDCHAR

STARTCHAR seven
ENCODING 55
SWIDTH 1131 0
DWIDTH 22 0
BBX 17 11 2 0
BITMAP
FFFF80
FFFF80
F01F80
003F00
007E00
00FC00
01F800
03F000
07E000
0FC000
1F8000
ENDCHAR

STARTCHAR eight
ENCODING 56
SWIDTH 1131 0
DWIDTH 22 0
BBX 17 11 2 0
BITMAP
1FFC00
7FFF00
7C1F00
7C1F00
3FFE00
7FFF00
FC1F80
FC1F80
FC1F80
7FFF00
1FFC00
ENDCHAR

STARTCHAR nine
ENCODING 57
SWIDTH 1131 0
DWIDTH 22 0
BBX 17 11 2 0
BITMAP
1FFC00
7FFF00
FC3F80
F81F80
FC3F80
7FFF80
1F9F00
001F00
007E00
7FFC00
7FF000
ENDCHAR

STARTCHAR colon
ENCODING 58
SWIDTH 1131 0
DWIDTH 22 0
BBX 8 9 7 0
BITMAP
3C
FF
FF
3C
00
3C
FF
FF
3C
ENDCHAR

STARTCHAR semicolon
ENCODING 59
SWIDTH 1131 0
DWIDTH 22 0
BBX 10 12 6 -3
BITMAP
0F00
3FC0
3FC0
0F00
0000
0000
3FC0
3F00
3F00
FC00
FC00
F000
ENDCHAR

STARTCHAR less
ENCODING 60
SWIDTH 1131 0
DWIDTH 22 0
BBX 18 9 2 1
BITMAP
0003C0
003FC0
03FF00
3FF000
FF0000
3FF000
03FF00
003FC0
0003C0
ENDCHAR

STARTCHAR equal
ENCODING 61
SWIDTH 1131 0
DWIDTH 22 0
BBX 18 6 2 2
BITMAP
FFFFC0
FFFFC0
000000
000000
FFFFC0
FFFFC0
ENDCHAR

STARTCHAR greater
ENCODING 62
SWIDTH 1131 0
DWIDTH 22 0
BBX 18 9 2 1
BITMAP
F00000
FF0000
3FF000
03FF00
003FC0
03FF00
3FF000
FF0000
F00000
ENDCHAR

STARTCHAR question
ENCODING 63
SWIDTH 1131 0
DWIDTH 22 0
BBX 16 11 3 0
BITMAP
3FFC
FFFF
FC3F
003F
03FC
0FF0
0FC0
0000
0FC0
3FF0
0FC0
ENDCHAR

STARTCHAR at
ENCODING 64
SWIDTH 1131 0
DWIDTH 22 0
BBX 20 14 1 -2
BITMAP
0FFE00
3FFF80
7C07C0
F803C0
F0FFC0
F3FFC0
F3C3C0
F3C3C0
F3FFF0
F0FCF0
F80000
7C0000
3FFF00
0FFF00
ENDCHAR

STARTCHAR A
ENCODING 65
SWIDTH 1131 0
DWIDTH 22 0
BBX 20 11 1 0
BITMAP
03FC00
03FC00
07FE00
079E00
0F9F00
0F0F00
1FFF80
3FFFC0
3C03C0
FF0FF0
FF0FF0
ENDCHAR

STARTCHAR B
ENCODING 66
SWIDTH 1131 0
DWIDTH 22 0
BBX 20 11 1 0
BITMAP
FFFF00
FFFFC0
3F0FC0
3F0FC0
3FFF00
3FFFC0
3F03F0
3F03F0
3F03F0
FFFFE0
FFFF80
ENDCHAR

STARTCHAR C
ENCODING 67
SWIDTH 1131 0
DWIDTH 22 0
BBX 20 11 1 0
BITMAP
07FCF0
3FFFF0
7E03F0
FC00F0
FC0000
FC0000
FC0000
FC0000
7E00F0
3FFFF0
07FF00
ENDCHAR

STARTCHAR D
ENCODING 68
SWIDTH 1131 0
DWIDTH 22 0
BBX 20 11 1 0
BITMAP
FFFF00
FFFFC0
3F07E0
3F03F0
3F03F0
3F03F0
3F03F0
3F03F0
3F07E0
FFFFC0
FFFF00
ENDCHAR

STARTCHAR E
ENCODING 69
SWIDTH 1131 0
DWIDTH 22 0
BBX 20 11 1 0
BITMAP
FFFFF0
FFFFF0
3F00F0
3F3CF0
3FFC00
3FFC00
3F3C00
3F00F0
3F00F0
FFFFF0
FFFFF0
ENDCHAR

STARTCHAR F
ENCODING 70
SWIDTH 1131 0
DWIDTH 22 0
BBX 20 11 1 0
BITMAP
FFFFF0
FFFFF0
3F00F0
3F3CF0
3FFC00
3FFC00
3F3C00
3F0000
3F0000
FFC000
FFC000
ENDCHAR

STARTCHAR G
ENCODING 71
SWIDTH 1131 0
DWIDTH 22 0
BBX 20 11 1 0
BITMAP
07FCF0
3FFFF0
7E03F0
FC00F0
FC0000
FC3FF0
FC3FF0
FC03F0
7E03F0
3FFFF0
07FF80
ENDCHAR

STARTCHAR H
ENCODING 72
SWIDTH 1131 0
DWIDTH 22 0
BBX 20 11 1 0
BITMAP
FF0FF0
FF0FF0
3F0FC0
3F0FC0
3FFFC0
3FFFC0
3F0FC0
3F0FC0
3F0FC0
FF0FF0
FF0FF0
ENDCHAR

STARTCHAR I
ENCODING 73
SWIDTH 1131 0
DWIDTH 22 0
BBX 18 11 2 0
BITMAP
FFFFC0
FFFFC0
03F000
03F000
03F000
03F000
03F000
03F000
03F000
FFFFC0
FFFFC0
ENDCHAR

STARTCHAR J
ENCODING 74
SWIDTH 1131 0
DWIDTH 22 0
BBX 20 11 1 0
BITMAP
03FFF0
03FFF0
003F00
003F00
003F00
003F00
F03F00
F03F00
F83F00
FFFE00
3FFC00
ENDCHAR

STARTCHAR K
ENCODING 75
SWIDTH 1131 0
DWIDTH 22 0
BBX 20 11 1 0
BITMAP
FF0FF0
FF0FF0
3F1F00
3F3C00
3F7800
3FFC00
3FFC00
3F1E00
3F1F00
FF0FF0
FF0FF0
ENDCHAR

STARTCHAR L
ENCODING 76
SWIDTH 1131 0
DWIDTH 22 0
BBX 18 11 2 0
BITMAP
FFC000
FFC000
3F0000
3F0000
3F0000
3F0000
3F03C0
3F03C0
3F03C0
FFFFC0
FFFFC0
ENDCHAR

STARTCHAR M
ENCODING 77
SWIDTH 1131 0
DWIDTH 22 0
BBX 20 11 1 0
BITMAP
FC03F0
FE07F0
3E07C0
3F0FC0
3F9FC0
3DFBC0
3EF7C0
3E67C0
3E07C0
FE07F0
FE07F0
ENDCHAR

STARTCHAR N
ENCODING 78
SWIDTH 1131 0
DWIDTH 22 0
BBX 20 11 1 0
BITMAP
FF0FF0
FF0FF0
3F8FC0
3FCFC0
3FEFC0
3F7FC0
3F3FC0
3F1FC0
3F0FC0
FF0FC0
FF0FC0
ENDCHAR

STARTCHAR O
ENCODING 79
SWIDTH 1131 0
DWIDTH 22 0
BBX 20 11 1 0
BITMAP
0FFF00
3FFFC0
7E07E0
FC03F0
FC03F0
FC03F0
FC03F0
FC03F0
7E07E0
3FFFC0
0FFF00
ENDCHAR

STARTCHAR P
ENCODING 80
SWIDTH 1131 0
DWIDTH 22 0
BBX 18 11 2 0
BITMAP
FFFF00
FFFF80
3F0FC0
3F0FC0
3F0FC0
3FFF80
3FFF00
3F0000
3F0000
FFC000
FFC000
ENDCHAR

STARTCHAR Q
ENCODING 81
SWIDTH 1131 0
DWIDTH 22 0
BBX 20 15 1 -4
BITMAP
07FE00
3FFFC0
7E07E0
FC03F0
FC03F0
FC03F0
FC03F0
FC03F0
7E07E0
3FFFC0
07FE00
01C000
03C070
0FFFF0
0F3FC0
ENDCHAR

STARTCHAR R
ENCODING 82
SWIDTH 1131 0
DWIDTH 22 0
BBX 19 11 1 0
BITMAP
FFFF80
FFFFC0
3F0FC0
3F0FC0
3FFF80
3FFE00
3F3E00
3F1F00
3F0F00
FF0FE0
FF07E0
ENDCHAR

STARTCHAR S
ENCODING 83
SWIDTH 1131 0
DWIDTH 22 0
BBX 16 11 3 0
BITMAP
1FCF
7FFF
FC1F
FC0F
7F80
3FFC
01FF
F03F
F83F
FFFE
F3F8
ENDCHAR

STARTCHAR T
ENCODING 84
SWIDTH 1131 0
DWIDTH 22 0
BBX 20 11 1 0
BITMAP
FFFFF0
FFFFF0
F1F8F0
F1F8F0
F1F8F0
01F800
01F800
01F800
01F800
07FE00
07FE00
ENDCHAR

STARTCHAR U
ENCODING 85
SWIDTH 1131 0
DWIDTH 22 0
BBX 20 11 1 0
BITMAP
FF0FF0
FF0FF0
3F0FC0
3F0FC0
3F0FC0
3F0FC0
3F0FC0
3F0FC0
3F0FC0
1FFF80
0FFF00
ENDCHAR

STARTCHAR V
ENCODING 86
SWIDTH 1131 0
DWIDTH 22 0
BBX 20 11 1 0
BITMAP
FE07F0
FE07F0
3E07C0
1F0F80
1F0F80
0F9F00
0F9F00
07FE00
03FC00
03FC00
01F800
ENDCHAR

STARTCHAR W
ENCODING 87
SWIDTH 1131 0
DWIDTH 22 0
BBX 20 11 1 0
BITMAP
FF0FF0
FF0FF0
3C03C0
3C63C0
3CF3C0
3CF3C0
3DFBC0
1F9F80
1F9F80
0F0F00
0F0F00
ENDCHAR

STARTCHAR X
ENCODING 88
SWIDTH 1131 0
DWIDTH 22 0
BBX 20 11 1 0
BITMAP
FE07F0
FF0FF0
1F9F80
0FFF00
07FE00
03FC00
07FE00
0FFF00
1F9F80
FF0FF0
FE07F0
ENDCHAR

STARTCHAR Y
ENCODING 89
SWIDTH 1131 0
DWIDTH 22 0
BBX 18 11 2 0
BITMAP
FE1FC0
FE1FC0
3F3F00
1F3E00
0FFC00
07F800
03F000
03F000
03F000
0FFC00
0FFC00
ENDCHAR

STARTCHAR Z
ENCODING 90
SWIDTH 1131 0
DWIDTH 22 0
BBX 15 11 3 0
BITMAP
FFFC
FFFC
F1F8
F3F0
07E0
0FC0
1F80
3F1E
7E1E
FFFE
FFFE
ENDCHAR

STARTCHAR bracketleft
ENCODING 91
SWIDTH 1131 0
DWIDTH 22 0
BBX 10 15 6 -2
BITMAP
FFC0
FFC0
FC00
FC00
FC00
FC00
FC00
FC00
FC00
FC00
FC00
FC00
FC00
FFC0
FFC0
ENDCHAR

STARTCHAR backslash
ENCODING 92
SWIDTH 1131 0
DWIDTH 22 0
BBX 18 14 2 -2
BITMAP
F80000
7C0000
3E0000
1F0000
0F8000
07C000
03E000
01F000
00F800
007C00
003E00
001F00
000F80
0007C0
ENDCHAR

STARTCHAR bracketright
ENCODING 93
SWIDTH 1131 0
DWIDTH 22 0
BBX 10 15 6 -2
BITMAP
FFC0
FFC0
0FC0
0FC0
0FC0
0FC0
0FC0
0FC0
0FC0
0FC0
0FC0
0FC0
0FC0
FFC0
FFC0
ENDCHAR

STARTCHAR asciicircum
ENCODING 94
SWIDTH 1131 0
DWIDTH 22 0
BBX 16 4 3 5
BITMAP
03C0
0FF0
3FFC
F00F
ENDCHAR

STARTCHAR underscore
ENCODING 95
SWIDTH 1131 0
DWIDTH 22 0
BBX 20 2 2 0
BITMAP
FFFFF0
FFFFF0
ENDCHAR

STARTCHAR quoteleft
ENCODING 96
SWIDTH 1131 0
DWIDTH 22 0
BBX 10 5 6 8
BITMAP
F000
FC00
3F00
0F00
03C0
ENDCHAR

STARTCHAR a
ENCODING 97
SWIDTH 1131 0
DWIDTH 22 0
BBX 20 9 1 0
BITMAP
0FFF80
3FFFC0
000FC0
1FFFC0
7FFFC0
FC0FC0
FC1FC0
7FFFF0
3FCFF0
ENDCHAR

STARTCHAR b
ENCODING 98
SWIDTH 1131 0
DWIDTH 22 0
BBX 20 12 1 0
BITMAP
FF0000
FF0000
3F0000
3F3F80
3FFFE0
3F87E0
3F03F0
3F03F0
3F03F0
3F87E0
FFFFE0
FF3F80
ENDCHAR

STARTCHAR c
ENCODING 99
SWIDTH 1131 0
DWIDTH 22 0
BBX 20 9 1 0
BITMAP
1FFCF0
7FFFF0
7E03F0
FC00F0
FC0000
FC0000
7E00F0
7FFFF0
1FFF00
ENDCHAR

STARTCHAR d
ENCODING 100
SWIDTH 1131 0
DWIDTH 22 0
BBX 20 12 1 0
BITMAP
00FFC0
00FFC0
000FC0
1FCFC0
7FFFC0
7E1FC0
FC0FC0
FC0FC0
FC0FC0
7E1FC0
7FFFF0
1FCFF0
ENDCHAR

STARTCHAR e
ENCODING 101
SWIDTH 1131 0
DWIDTH 22 0
BBX 20 9 1 0
BITMAP
1FFF80
7FFFE0
7C01F0
FFFFF0
FFFFF0
FC0000
7E00F0
7FFFF0
1FFF80
ENDCHAR

STARTCHAR f
ENCODING 102
SWIDTH 1131 0
DWIDTH 22 0
BBX 18 12 2 0
BITMAP
07FFC0
0FFFC0
0FC000
FFFF00
FFFF00
0FC000
0FC000
0FC000
0FC000
0FC000
FFFF00
FFFF00
ENDCHAR

STARTCHAR g
ENCODING 103
SWIDTH 1131 0
DWIDTH 22 0
BBX 20 13 1 -4
BITMAP
1FCFF0
7FFFF0
7E1FC0
FC0FC0
FC0FC0
FC0FC0
7E1FC0
7FFFC0
1FCFC0
000FC0
000FC0
3FFF80
3FFF00
ENDCHAR

STARTCHAR h
ENCODING 104
SWIDTH 1131 0
DWIDTH 22 0
BBX 20 12 1 0
BITMAP
FF0000
FF0000
3F0000
3F3F80
3FFFC0
3FCFC0
3F0FC0
3F0FC0
3F0FC0
3F0FC0
FF0FF0
FF0FF0
ENDCHAR

STARTCHAR i
ENCODING 105
SWIDTH 1131 0
DWIDTH 22 0
BBX 18 13 2 0
BITMAP
03F000
03F000
03F000
000000
3FF000
3FF000
03F000
03F000
03F000
03F000
03F000
FFFFC0
FFFFC0
ENDCHAR

STARTCHAR j
ENCODING 106
SWIDTH 1131 0
DWIDTH 22 0
BBX 14 17 2 -4
BITMAP
00FC
00FC
00FC
0000
3FFC
3FFC
00FC
00FC
00FC
00FC
00FC
00FC
00FC
00FC
00FC
FFF8
FFF0
ENDCHAR

STARTCHAR k
ENCODING 107
SWIDTH 1131 0
DWIDTH 22 0
BBX 20 12 1 0
BITMAP
FF0000
FF0000
3F0000
3F1FF0
3F1FF0
3F3E00
3F7800
3FF800
3FFC00
3F1F00
FF0FF0
FF07F0
ENDCHAR

STARTCHAR l
ENCODING 108
SWIDTH 1131 0
DWIDTH 22 0
BBX 18 12 2 0
BITMAP
3FF000
3FF000
03F000
03F000
03F000
03F000
03F000
03F000
03F000
03F000
FFFFC0
FFFFC0
ENDCHAR

STARTCHAR m
ENCODING 109
SWIDTH 1131 0
DWIDTH 22 0
BBX 20 9 1 0
BITMAP
F3E7E0
FFFFF0
FCF3F0
FCF3F0
FCF3F0
FCF3F0
FCF3F0
FCF3F0
FC03F0
ENDCHAR

STARTCHAR n
ENCODING 110
SWIDTH 1131 0
DWIDTH 22 0
BBX 20 9 1 0
BITMAP
FF3F80
FFFFC0
3FCFC0
3F0FC0
3F0FC0
3F0FC0
3F0FC0
FF0FF0
FF0FF0
ENDCHAR

STARTCHAR o
ENCODING 111
SWIDTH 1131 0
DWIDTH 22 0
BBX 20 9 1 0
BITMAP
1FFF80
7FFFE0
7E07E0
FC03F0
FC03F0
FC03F0
7E07E0
7FFFE0
1FFF80
ENDCHAR

STARTCHAR p
ENCODING 112
SWIDTH 1131 0
DWIDTH 22 0
BBX 20 13 1 -4
BITMAP
FF3F80
FFFFE0
3F87E0
3F03F0
3F03F0
3F03F0
3F87E0
3FFFE0
3F3F80
3F0000
3F0000
FFF000
FFF000
ENDCHAR

STARTCHAR q
ENCODING 113
SWIDTH 1131 0
DWIDTH 22 0
BBX 20 13 1 -4
BITMAP
1FCFF0
7FFFF0
7E1FC0
FC0FC0
FC0FC0
FC0FC0
7E1FC0
7FFFC0
1FCFC0
000FC0
000FC0
00FFF0
00FFF0
ENDCHAR

STARTCHAR r
ENCODING 114
SWIDTH 1131 0
DWIDTH 22 0
BBX 20 9 1 0
BITMAP
FF3FC0
FFFFF0
0FC0F0
0FC000
0FC000
0FC000
0FC000
FFFF00
FFFF00
ENDCHAR

STARTCHAR s
ENCODING 115
SWIDTH 1131 0
DWIDTH 22 0
BBX 16 9 3 0
BITMAP
3FEF
FFFF
FC0F
FF80
3FFC
01FF
F03F
FFFF
F7FC
ENDCHAR

STARTCHAR t
ENCODING 116
SWIDTH 1131 0
DWIDTH 22 0
BBX 20 12 1 0
BITMAP
0FC000
0FC000
0FC000
FFFFC0
FFFFC0
0FC000
0FC000
0FC000
0FC000
0FC0F0
0FFFF0
03FF00
ENDCHAR

STARTCHAR u
ENCODING 117
SWIDTH 1131 0
DWIDTH 22 0
BBX 20 9 1 0
BITMAP
FF3FC0
FF3FC0
3F0FC0
3F0FC0
3F0FC0
3F0FC0
3F3FC0
3FFFF0
0FCFF0
ENDCHAR

STARTCHAR v
ENCODING 118
SWIDTH 1131 0
DWIDTH 22 0
BBX 20 9 1 0
BITMAP
FC03F0
FE07F0
3F0FC0
1F9F80
0FFF00
07FE00
03FC00
01F800
00F000
ENDCHAR

STARTCHAR w
ENCODING 119
SWIDTH 1131 0
DWIDTH 22 0
BBX 20 9 1 0
BITMAP
FC03F0
FC03F0
3C63C0
3CF3C0
3CF3C0
1FFF80
1F9F80
0F0F00
0F0F00
ENDCHAR

STARTCHAR x
ENCODING 120
SWIDTH 1131 0
DWIDTH 22 0
BBX 20 9 1 0
BITMAP
FE07F0
FF0FF0
0F9F00
07FE00
03FC00
07FE00
0F9F00
FF0FF0
FE07F0
ENDCHAR

STARTCHAR y
ENCODING 121
SWIDTH 1131 0
DWIDTH 22 0
BBX 20 13 1 -4
BITMAP
FE07F0
FE07F0
3F0FC0
1F0F80
0F9F00
07FE00
03FC00
01F800
00F800
00F000
01F000
07F800
07F800
ENDCHAR

STARTCHAR z
ENCODING 122
SWIDTH 1131 0
DWIDTH 22 0
BBX 16 9 3 0
BITMAP
FFFF
FFFF
F07C
F1F0
03E0
0F8F
3E0F
FFFF
FFFF
ENDCHAR

STARTCHAR braceleft
ENCODING 123
SWIDTH 1131 0
DWIDTH 22 0
BBX 14 16 4 -3
BITMAP
03FC
0FFC
0FC0
0FC0
0FC0
0FC0
1F00
FC00
1F00
0FC0
0FC0
0FC0
0FC0
0FC0
0FFC
03FC
ENDCHAR

STARTCHAR bar
ENCODING 124
SWIDTH 1131 0
DWIDTH 22 0
BBX 6 16 8 -3
BITMAP
FC
FC
FC
FC
FC
FC
FC
FC
FC
FC
FC
FC
FC
FC
FC
FC
ENDCHAR

STARTCHAR braceright
ENCODING 125
SWIDTH 1131 0
DWIDTH 22 0
BBX 14 16 4 -3
BITMAP
FF00
FFC0
0FC0
0FC0
0FC0
0FC0
03E0
00FC
03E0
0FC0
0FC0
0FC0
0FC0
0FC0
FFC0
FF00
ENDCHAR

STARTCHAR asciitilde
ENCODING 126
SWIDTH 1131 0
DWIDTH 22 0
BBX 20 3 1 6
BITMAP
3FC030
FFFFF0
C03FC0
ENDCHAR

STARTCHAR OE
ENCODING 128
SWIDTH 1131 0
DWIDTH 22 0
BBX 20 11 1 0
BITMAP
0FFFF0
3FFFF0
7CFC30
FCFC00
FCFFC0
FCFFC0
FCFC00
FCFC00
7CFC30
3FFFF0
0FFFF0
ENDCHAR

STARTCHAR oe
ENCODING 129
SWIDTH 1131 0
DWIDTH 22 0
BBX 20 9 1 0
BITMAP
0FCFC0
3FFFF0
7CF8F0
FCFFF0
FCFFF0
FCF800
7CF870
3FFFF0
0FCFC0
ENDCHAR

STARTCHAR Ydieresis
ENCODING 130
SWIDTH 1131 0
DWIDTH 22 0
BBX 20 15 1 0
BITMAP
7C03E0
FE07F0
7C03E0
000000
7F0FE0
7F0FE0
1F9F80
0F9F00
07FE00
03FC00
01F800
01F800
01F800
1FFF80
1FFF80
ENDCHAR

STARTCHAR Error
ENCODING 159
SWIDTH 1131 0
DWIDTH 22 0
BBX 20 19 1 -4
BITMAP
1FFFC0
7FFFF0
FFFFF0
FF0FF0
FF0FF0
FF8000
FFE000
7FF800
1FFC00
07FC00
03FC00
03FC00
000000
000000
03FC00
03FC00
03FC00
03FC00
03FC00
ENDCHAR

STARTCHAR exclamdown
ENCODING 161
SWIDTH 1131 0
DWIDTH 22 0
BBX 10 12 6 -1
BITMAP
3F00
FFC0
3F00
0000
3F00
3F00
3F00
3F00
3F00
3F00
3F00
3F00
ENDCHAR

STARTCHAR cent
ENCODING 162
SWIDTH 1131 0
DWIDTH 22 0
BBX 18 12 2 -1
BITMAP
00F000
00F000
1FFFC0
7FFFC0
FE03C0
FC0000
FC0000
FE01C0
7FFFC0
1FFE00
00F000
00F000
ENDCHAR

STARTCHAR sterling
ENCODING 163
SWIDTH 1131 0
DWIDTH 22 0
BBX 20 11 1 0
BITMAP
03FF00
0FFFC0
0FC3C0
0FC000
FFFF00
FFFF00
03E000
03E000
03F070
3FFFF0
3F1FC0
ENDCHAR

STARTCHAR currency
ENCODING 164
SWIDTH 1131 0
DWIDTH 22 0
BBX 18 9 2 1
BITMAP
E001C0
FBF7C0
3FFF00
7E1F80
7E1F80
7E1F80
3FFF00
FBF7C0
E001C0
ENDCHAR

STARTCHAR yen
ENCODING 165
SWIDTH 1131 0
DWIDTH 22 0
BBX 22 11 0 0
BITMAP
FFCFFC
FFCFFC
1F03E0
FF87FC
FFCFFC
03CF00
FFFFFC
FFFFFC
00FC00
07FF80
07FF80
ENDCHAR

STARTCHAR brokenbar
ENCODING 166
SWIDTH 1131 0
DWIDTH 22 0
BBX 6 16 8 -3
BITMAP
FC
FC
FC
FC
FC
FC
00
00
00
00
FC
FC
FC
FC
FC
FC
ENDCHAR

STARTCHAR section
ENCODING 167
SWIDTH 1131 0
DWIDTH 22 0
BBX 20 13 1 -2
BITMAP
03FFC0
0FFFC0
3F03C0
FFC000
F3F000
FC7E00
7F0FC0
1FF3F0
01FCF0
003FF0
3C0FC0
3FFFC0
3FFF00
ENDCHAR

STARTCHAR dieresis
ENCODING 168
SWIDTH 1131 0
DWIDTH 22 0
BBX 20 3 1 11
BITMAP
7C03E0
FE07F0
7C03E0
ENDCHAR

STARTCHAR copyright
ENCODING 169
SWIDTH 1131 0
DWIDTH 22 0
BBX 22 12 0 0
BITMAP
07FF80
3FFFF0
3C00F0
F0FC3C
F3FC3C
F3C03C
F3C03C
F3FC3C
F0FC3C
3C00F0
3FFFF0
07FF80
ENDCHAR

STARTCHAR ordfeminine
ENCODING 170
SWIDTH 1131 0
DWIDTH 22 0
BBX 15 11 3 0
BITMAP
1FF8
7FFC
007C
3FFC
7FFC
787C
7FFE
3F9E
0000
FFFE
FFFE
ENDCHAR

STARTCHAR guillemotleft
ENCODING 171
SWIDTH 1131 0
DWIDTH 22 0
BBX 14 7 4 0
BITMAP
0C0C
3C3C
FCFC
F0F0
FCFC
3C3C
0C0C
ENDCHAR

STARTCHAR logicalnot
ENCODING 172
SWIDTH 1131 0
DWIDTH 22 0
BBX 18 6 2 2
BITMAP
FFFFC0
FFFFC0
000FC0
000FC0
000FC0
000FC0
ENDCHAR

STARTCHAR hyphen
ENCODING 173
SWIDTH 1131 0
DWIDTH 22 0
BBX 18 2 2 3
BITMAP
FFFFC0
FFFFC0
ENDCHAR

STARTCHAR registered
ENCODING 174
SWIDTH 1131 0
DWIDTH 22 0
BBX 22 12 0 0
BITMAP
07FF80
3FFFF0
3C00F0
F3FC3C
F3FF3C
F3CF3C
F3FC3C
F3FF3C
F3CF3C
3C00F0
3FFFF0
07FF80
ENDCHAR

STARTCHAR macron
ENCODING 175
SWIDTH 1131 0
DWIDTH 22 0
BBX 14 2 4 11
BITMAP
FFFC
FFFC
ENDCHAR

STARTCHAR degree
ENCODING 176
SWIDTH 1131 0
DWIDTH 22 0
BBX 12 6 5 5
BITMAP
3FC0
FFF0
F0F0
F0F0
FFF0
3FC0
ENDCHAR

STARTCHAR plusminus
ENCODING 177
SWIDTH 1131 0
DWIDTH 22 0
BBX 18 11 2 0
BITMAP
03F000
03F000
03F000
FFFFC0
FFFFC0
03F000
03F000
03F000
000000
FFFFC0
FFFFC0
ENDCHAR

STARTCHAR twosuperior
ENCODING 178
SWIDTH 1131 0
DWIDTH 22 0
BBX 12 7 5 4
BITMAP
3FC0
FFF0
03F0
0FC0
3F00
FFF0
FFF0
ENDCHAR

STARTCHAR threesuperior
ENCODING 179
SWIDTH 1131 0
DWIDTH 22 0
BBX 12 7 5 4
BITMAP
3FC0
FFF0
03F0
0FC0
03F0
FFF0
3FC0
ENDCHAR

STARTCHAR acute
ENCODING 180
SWIDTH 1131 0
DWIDTH 22 0
BBX 10 3 6 11
BITMAP
0FC0
3F00
F800
ENDCHAR

STARTCHAR mu
ENCODING 181
SWIDTH 1131 0
DWIDTH 22 0
BBX 20 13 1 -4
BITMAP
3F03F0
3F03F0
3F03E0
3E07E0
3E07E0
3E07C0
7E1FC0
7FFFF0
7FE3F0
7C0000
7C0000
FC0000
FC0000
ENDCHAR

STARTCHAR paragraph
ENCODING 182
SWIDTH 1131 0
DWIDTH 22 0
BBX 20 13 1 -2
BITMAP
1FFFF0
7FFFF0
FFF3C0
FFF3C0
FFF3C0
7FF3C0
1FF3C0
00F3C0
00F3C0
00F3C0
00F3C0
03F3F0
03F3F0
ENDCHAR

STARTCHAR periodcentered
ENCODING 183
SWIDTH 1131 0
DWIDTH 22 0
BBX 8 4 7 3
BITMAP
3C
FF
FF
3C
ENDCHAR

STARTCHAR cedilla
ENCODING 184
SWIDTH 1131 0
DWIDTH 22 0
BBX 12 5 5 -5
BITMAP
0E00
0FE0
00F0
FFF0
3FE0
ENDCHAR

STARTCHAR onesuperior
ENCODING 185
SWIDTH 1131 0
DWIDTH 22 0
BBX 8 7 7 4
BITMAP
FC
FC
3C
3C
3C
FF
FF
ENDCHAR

STARTCHAR ordmasculine
ENCODING 186
SWIDTH 1131 0
DWIDTH 22 0
BBX 14 11 4 0
BITMAP
1FE0
7FF8
F87C
F87C
F87C
F87C
7FF8
1FE0
0000
FFFC
FFFC
ENDCHAR

STARTCHAR guillemotright
ENCODING 187
SWIDTH 1131 0
DWIDTH 22 0
BBX 14 7 4 0
BITMAP
C0C0
F0F0
FCFC
3C3C
FCFC
F0F0
C0C0
ENDCHAR

STARTCHAR onequarter
ENCODING 188
SWIDTH 1131 0
DWIDTH 22 0
BBX 20 16 1 -4
BITMAP
FC0000
FC0000
3C0000
3C0000
3C0000
FF00C0
FF0FC0
00FF00
0FF000
FF03C0
F00FC0
003FC0
00F3F0
00FFF0
0003C0
0003C0
ENDCHAR

STARTCHAR onehalf
ENCODING 189
SWIDTH 1131 0
DWIDTH 22 0
BBX 20 16 1 -4
BITMAP
FC0000
FC0000
3C0000
3C0000
3C0000
FF00C0
FF0FC0
00FF00
0FF000
FF0FC0
F03FF0
0000F0
0003C0
000F00
003FF0
003FF0
ENDCHAR

STARTCHAR threequarters
ENCODING 190
SWIDTH 1131 0
DWIDTH 22 0
BBX 20 16 1 -4
BITMAP
3F0000
FFC000
03C000
0F0000
03C000
FFC0C0
3F0FC0
00FF00
0FF000
FF03C0
F00FC0
003FC0
00F3F0
00FFF0
0003C0
0003C0
ENDCHAR

STARTCHAR questiondown
ENCODING 191
SWIDTH 1131 0
DWIDTH 22 0
BBX 17 12 3 -1
BITMAP
07E000
1FF800
07E000
000000
07E000
0FE000
3F8000
7F0000
FC0000
FC1F80
FFFF80
3FFE00
ENDCHAR

STARTCHAR Agrave
ENCODING 192
SWIDTH 1131 0
DWIDTH 22 0
BBX 20 15 1 0
BITMAP
07E000
01F800
003E00
000000
03FC00
03FC00
07FE00
079E00
0F9F00
0F0F00
1FFF80
3FFFC0
3C03C0
FF0FF0
FF0FF0
ENDCHAR

STARTCHAR Aacute
ENCODING 193
SWIDTH 1131 0
DWIDTH 22 0
BBX 20 15 1 0
BITMAP
003F00
00FC00
03E000
000000
03FC00
03FC00
07FE00
079E00
0F9F00
0F0F00
1FFF80
3FFFC0
3C03C0
FF0FF0
FF0FF0
ENDCHAR

STARTCHAR Acircumflex
ENCODING 194
SWIDTH 1131 0
DWIDTH 22 0
BBX 20 15 1 0
BITMAP
03FC00
0FFF00
3F0FC0
000000
03FC00
03FC00
07FE00
079E00
0F9F00
0F0F00
1FFF80
3FFFC0
3C03C0
FF0FF0
FF0FF0
ENDCHAR

STARTCHAR Atilde
ENCODING 195
SWIDTH 1131 0
DWIDTH 22 0
BBX 20 15 1 0
BITMAP
0FC0C0
3FFFC0
303F00
000000
03FC00
03FC00
07FE00
079E00
0F9F00
0F0F00
1FFF80
3FFFC0
3C03C0
FF0FF0
FF0FF0
ENDCHAR

STARTCHAR Adieresis
ENCODING 196
SWIDTH 1131 0
DWIDTH 22 0
BBX 20 15 1 0
BITMAP
7C03E0
FE07F0
7C03E0
000000
03FC00
03FC00
07FE00
079E00
0F9F00
0F0F00
1FFF80
3FFFC0
3C03C0
FF0FF0
FF0FF0
ENDCHAR

STARTCHAR Aring
ENCODING 197
SWIDTH 1131 0
DWIDTH 22 0
BBX 20 14 1 0
BITMAP
03FC00
0FFF00
0F0F00
0F0F00
03FC00
07FE00
079E00
0F9F00
0F0F00
1FFF80
3FFFC0
3C03C0
FF0FF0
FF0FF0
ENDCHAR

STARTCHAR AE
ENCODING 198
SWIDTH 1131 0
DWIDTH 22 0
BBX 20 11 1 0
BITMAP
1FFFF0
1FFFF0
1CFC30
3CFC00
3CFFC0
38FFC0
7FFC00
7FFC00
78FC30
F0FFF0
F0FFF0
ENDCHAR

STARTCHAR Ccedilla
ENCODING 199
SWIDTH 1131 0
DWIDTH 22 0
BBX 20 16 1 -5
BITMAP
07FCF0
3FFFF0
7E03F0
FC00F0
FC0000
FC0000
FC0000
FC0000
7E00F0
3FFFF0
07FF00
00E000
00FE00
000F00
0FFF00
03FE00
ENDCHAR

STARTCHAR Egrave
ENCODING 200
SWIDTH 1131 0
DWIDTH 22 0
BBX 20 15 1 0
BITMAP
07E000
01F800
003E00
000000
FFFFF0
FFFFF0
3F00F0
3F3CF0
3FFC00
3FFC00
3F3C00
3F00F0
3F00F0
FFFFF0
FFFFF0
ENDCHAR

STARTCHAR Eacute
ENCODING 201
SWIDTH 1131 0
DWIDTH 22 0
BBX 20 15 1 0
BITMAP
001F80
007E00
01F000
000000
FFFFF0
FFFFF0
3F00F0
3F3CF0
3FFC00
3FFC00
3F3C00
3F00F0
3F00F0
FFFFF0
FFFFF0
ENDCHAR

STARTCHAR Ecircumflex
ENCODING 202
SWIDTH 1131 0
DWIDTH 22 0
BBX 20 15 1 0
BITMAP
03FC00
0FFF00
3F0FC0
000000
FFFFF0
FFFFF0
3F00F0
3F3CF0
3FFC00
3FFC00
3F3C00
3F00F0
3F00F0
FFFFF0
FFFFF0
ENDCHAR

STARTCHAR Edieresis
ENCODING 203
SWIDTH 1131 0
DWIDTH 22 0
BBX 20 15 1 0
BITMAP
7C03E0
FE07F0
7C03E0
000000
FFFFF0
FFFFF0
3F00F0
3F3CF0
3FFC00
3FFC00
3F3C00
3F00F0
3F00F0
FFFFF0
FFFFF0
ENDCHAR

STARTCHAR Igrave
ENCODING 204
SWIDTH 1131 0
DWIDTH 22 0
BBX 18 15 2 0
BITMAP
1F8000
07E000
00F800
000000
FFFFC0
FFFFC0
03F000
03F000
03F000
03F000
03F000
03F000
03F000
FFFFC0
FFFFC0
ENDCHAR

STARTCHAR Iacute
ENCODING 205
SWIDTH 1131 0
DWIDTH 22 0
BBX 18 15 2 0
BITMAP
007E00
01F800
07C000
000000
FFFFC0
FFFFC0
03F000
03F000
03F000
03F000
03F000
03F000
03F000
FFFFC0
FFFFC0
ENDCHAR

STARTCHAR Icircumflex
ENCODING 206
SWIDTH 1131 0
DWIDTH 22 0
BBX 18 15 2 0
BITMAP
07F800
1FFE00
7E1F80
000000
FFFFC0
FFFFC0
03F000
03F000
03F000
03F000
03F000
03F000
03F000
FFFFC0
FFFFC0
ENDCHAR

STARTCHAR Idieresis
ENCODING 207
SWIDTH 1131 0
DWIDTH 22 0
BBX 20 15 1 0
BITMAP
7C03E0
FE07F0
7C03E0
000000
7FFFE0
7FFFE0
01F800
01F800
01F800
01F800
01F800
01F800
01F800
7FFFE0
7FFFE0
ENDCHAR

STARTCHAR Eth
ENCODING 208
SWIDTH 1131 0
DWIDTH 22 0
BBX 20 11 1 0
BITMAP
FFFF00
FFFFC0
3F07E0
3F03F0
FFF3F0
FFF3F0
3F03F0
3F03F0
3F07E0
FFFFC0
FFFF00
ENDCHAR

STARTCHAR Ntilde
ENCODING 209
SWIDTH 1131 0
DWIDTH 22 0
BBX 20 15 1 0
BITMAP
0FC0C0
3FFFC0
303F00
000000
FF0FF0
FF0FF0
3F8FC0
3FCFC0
3FEFC0
3F7FC0
3F3FC0
3F1FC0
3F0FC0
FF0FC0
FF0FC0
ENDCHAR

STARTCHAR Ograve
ENCODING 210
SWIDTH 1131 0
DWIDTH 22 0
BBX 20 15 1 0
BITMAP
1F8000
07E000
00F800
000000
07FE00
3FFFC0
7E07E0
FC03F0
FC03F0
FC03F0
FC03F0
FC03F0
7E07E0
3FFFC0
07FE00
ENDCHAR

STARTCHAR Oacute
ENCODING 211
SWIDTH 1131 0
DWIDTH 22 0
BBX 20 15 1 0
BITMAP
001F80
007E00
01F000
000000
07FE00
3FFFC0
7E07E0
FC03F0
FC03F0
FC03F0
FC03F0
FC03F0
7E07E0
3FFFC0
07FE00
ENDCHAR

STARTCHAR Ocircumflex
ENCODING 212
SWIDTH 1131 0
DWIDTH 22 0
BBX 20 15 1 0
BITMAP
03FC00
0FFF00
3F0FC0
000000
07FE00
3FFFC0
7E07E0
FC03F0
FC03F0
FC03F0
FC03F0
FC03F0
7E07E0
3FFFC0
07FE00
ENDCHAR

STARTCHAR Otilde
ENCODING 213
SWIDTH 1131 0
DWIDTH 22 0
BBX 20 15 1 0
BITMAP
0FC0C0
3FFFC0
303F00
000000
07FE00
3FFFC0
7E07E0
FC03F0
FC03F0
FC03F0
FC03F0
FC03F0
7E07E0
3FFFC0
07FE00
ENDCHAR

STARTCHAR Odieresis
ENCODING 214
SWIDTH 1131 0
DWIDTH 22 0
BBX 20 15 1 0
BITMAP
7C03E0
FE07F0
7C03E0
000000
07FE00
3FFFC0
7E07E0
FC03F0
FC03F0
FC03F0
FC03F0
FC03F0
7E07E0
3FFFC0
07FE00
ENDCHAR

STARTCHAR multiply
ENCODING 215
SWIDTH 1131 0
DWIDTH 22 0
BBX 16 8 3 1
BITMAP
300C
FC3F
3FFC
0FF0
0FF0
3FFC
FC3F
300C
ENDCHAR

STARTCHAR Oslash
ENCODING 216
SWIDTH 1131 0
DWIDTH 22 0
BBX 20 11 1 0
BITMAP
07FEF0
3FFFE0
7E0FE0
FC1FF0
FC3BF0
FCF3F0
FDE3F0
FF83F0
7F07E0
FFFFC0
E7FE00
ENDCHAR

STARTCHAR Ugrave
ENCODING 217
SWIDTH 1131 0
DWIDTH 22 0
BBX 20 15 1 0
BITMAP
0FC000
03F000
007C00
000000
FF0FF0
FF0FF0
3F0FC0
3F0FC0
3F0FC0
3F0FC0
3F0FC0
3F0FC0
3F0FC0
1FFF80
0FFF00
ENDCHAR

STARTCHAR Uacute
ENCODING 218
SWIDTH 1131 0
DWIDTH 22 0
BBX 20 15 1 0
BITMAP
003F00
00FC00
03E000
000000
FF0FF0
FF0FF0
3F0FC0
3F0FC0
3F0FC0
3F0FC0
3F0FC0
3F0FC0
3F0FC0
1FFF80
0FFF00
ENDCHAR

STARTCHAR Ucircumflex
ENCODING 219
SWIDTH 1131 0
DWIDTH 22 0
BBX 20 15 1 0
BITMAP
03FC00
0FFF00
3F0FC0
000000
FF0FF0
FF0FF0
3F0FC0
3F0FC0
3F0FC0
3F0FC0
3F0FC0
3F0FC0
3F0FC0
1FFF80
0FFF00
ENDCHAR

STARTCHAR Udieresis
ENCODING 220
SWIDTH 1131 0
DWIDTH 22 0
BBX 20 15 1 0
BITMAP
7C03E0
FE07F0
7C03E0
000000
FF0FF0
FF0FF0
3F0FC0
3F0FC0
3F0FC0
3F0FC0
3F0FC0
3F0FC0
3F0FC0
1FFF80
0FFF00
ENDCHAR

STARTCHAR Yacute
ENCODING 221
SWIDTH 1131 0
DWIDTH 22 0
BBX 18 15 2 0
BITMAP
007E00
01F800
07C000
000000
FE1FC0
FE1FC0
3F3F00
1F3E00
0FFC00
07F800
03F000
03F000
03F000
1FFE00
1FFE00
ENDCHAR

STARTCHAR Thorn
ENCODING 222
SWIDTH 1131 0
DWIDTH 22 0
BBX 18 11 2 0
BITMAP
FF0000
FF0000
3FFF00
3FFFC0
3F0FC0
3F0FC0
3FFFC0
3FFF00
3F0000
FFC000
FFC000
ENDCHAR

STARTCHAR germandbls
ENCODING 223
SWIDTH 1131 0
DWIDTH 22 0
BBX 20 12 1 0
BITMAP
0FFF80
1FFFC0
3F07C0
3F07C0
3F3F80
3F3FC0
3F03E0
3F03F0
3F03F0
3F03F0
FF3FE0
FF3FC0
ENDCHAR

STARTCHAR agrave
ENCODING 224
SWIDTH 1131 0
DWIDTH 22 0
BBX 20 14 1 0
BITMAP
0FC000
03F000
007C00
000000
000000
0FFF80
3FFFC0
000FC0
1FFFC0
7FFFC0
FC0FC0
FC1FC0
7FFFF0
3FCFF0
ENDCHAR

STARTCHAR aacute
ENCODING 225
SWIDTH 1131 0
DWIDTH 22 0
BBX 20 14 1 0
BITMAP
003F00
00FC00
03E000
000000
000000
0FFF80
3FFFC0
000FC0
1FFFC0
7FFFC0
FC0FC0
FC1FC0
7FFFF0
3FCFF0
ENDCHAR

STARTCHAR acircumflex
ENCODING 226
SWIDTH 1131 0
DWIDTH 22 0
BBX 20 14 1 0
BITMAP
03FC00
0FFF00
3F0FC0
000000
000000
0FFF80
3FFFC0
000FC0
1FFFC0
7FFFC0
FC0FC0
FC1FC0
7FFFF0
3FCFF0
ENDCHAR

STARTCHAR atilde
ENCODING 227
SWIDTH 1131 0
DWIDTH 22 0
BBX 20 14 1 0
BITMAP
0FC0C0
3FFFC0
303F00
000000
000000
0FFF80
3FFFC0
000FC0
1FFFC0
7FFFC0
FC0FC0
FC1FC0
7FFFF0
3FCFF0
ENDCHAR

STARTCHAR adieresis
ENCODING 228
SWIDTH 1131 0
DWIDTH 22 0
BBX 20 14 1 0
BITMAP
7C03E0
FE07F0
7C03E0
000000
000000
0FFF80
3FFFC0
000FC0
1FFFC0
7FFFC0
FC0FC0
FC1FC0
7FFFF0
3FCFF0
ENDCHAR

STARTCHAR aring
ENCODING 229
SWIDTH 1131 0
DWIDTH 22 0
BBX 20 14 1 0
BITMAP
0FFC00
3F3F00
3F3F00
0FFC00
000000
0FFF80
3FFFC0
000FC0
1FFFC0
7FFFC0
FC0FC0
FC1FC0
7FFFF0
3FCFF0
ENDCHAR

STARTCHAR ae
ENCODING 230
SWIDTH 1131 0
DWIDTH 22 0
BBX 20 9 1 0
BITMAP
3FCFC0
3FFFF0
00F8F0
3FFFF0
FFFFF0
F0F800
F0F870
FFFFF0
3F0FC0
ENDCHAR

STARTCHAR ccedilla
ENCODING 231
SWIDTH 1131 0
DWIDTH 22 0
BBX 20 14 1 -5
BITMAP
1FFCF0
7FFFF0
7E03F0
FC00F0
FC0000
FC0000
7E00F0
7FFFF0
1FFF00
00E000
00FE00
000F00
0FFF00
03FE00
ENDCHAR

STARTCHAR egrave
ENCODING 232
SWIDTH 1131 0
DWIDTH 22 0
BBX 20 14 1 0
BITMAP
0FC000
03F000
007C00
000000
000000
1FFF80
7FFFE0
7C01F0
FFFFF0
FFFFF0
FC0000
7E00F0
7FFFF0
1FFF80
ENDCHAR

STARTCHAR eacute
ENCODING 233
SWIDTH 1131 0
DWIDTH 22 0
BBX 20 14 1 0
BITMAP
003F00
00FC00
03E000
000000
000000
1FFF80
7FFFE0
7C01F0
FFFFF0
FFFFF0
FC0000
7E00F0
7FFFF0
1FFF80
ENDCHAR

STARTCHAR ecircumflex
ENCODING 234
SWIDTH 1131 0
DWIDTH 22 0
BBX 20 14 1 0
BITMAP
03FC00
0FFF00
3F0FC0
000000
000000
1FFF80
7FFFE0
7C01F0
FFFFF0
FFFFF0
FC0000
7E00F0
7FFFF0
1FFF80
ENDCHAR

STARTCHAR edieresis
ENCODING 235
SWIDTH 1131 0
DWIDTH 22 0
BBX 20 14 1 0
BITMAP
7C03E0
FE07F0
7C03E0
000000
000000
1FFF80
7FFFE0
7C01F0
FFFFF0
FFFFF0
FC0000
7E00F0
7FFFF0
1FFF80
ENDCHAR

STARTCHAR igrave
ENCODING 236
SWIDTH 1131 0
DWIDTH 22 0
BBX 18 14 2 0
BITMAP
3F0000
0FC000
01F000
000000
000000
3FF000
3FF000
03F000
03F000
03F000
03F000
03F000
FFFFC0
FFFFC0
ENDCHAR

STARTCHAR iacute
ENCODING 237
SWIDTH 1131 0
DWIDTH 22 0
BBX 18 14 2 0
BITMAP
00FC00
03F000
0F8000
000000
000000
3FF000
3FF000
03F000
03F000
03F000
03F000
03F000
FFFFC0
FFFFC0
ENDCHAR

STARTCHAR icircumflex
ENCODING 238
SWIDTH 1131 0
DWIDTH 22 0
BBX 18 14 2 0
BITMAP
0FF000
3FFC00
FC3F00
000000
000000
3FF000
3FF000
03F000
03F000
03F000
03F000
03F000
FFFFC0
FFFFC0
ENDCHAR

STARTCHAR idieresis
ENCODING 239
SWIDTH 1131 0
DWIDTH 22 0
BBX 20 14 1 0
BITMAP
7C03E0
FE07F0
7C03E0
000000
000000
1FF800
1FF800
01F800
01F800
01F800
01F800
01F800
7FFFE0
7FFFE0
ENDCHAR

STARTCHAR eth
ENCODING 240
SWIDTH 1131 0
DWIDTH 22 0
BBX 19 12 1 0
BITMAP
1F9E00
07F800
1E7E00
001F00
1FFF80
7FFFC0
FC0FE0
F807E0
F807E0
FC0FC0
7FFFC0
1FFF00
ENDCHAR

STARTCHAR ntilde
ENCODING 241
SWIDTH 1131 0
DWIDTH 22 0
BBX 20 14 1 0
BITMAP
0FC0C0
3FFFC0
303F00
000000
000000
FF3F80
FFFFC0
3FCFC0
3F0FC0
3F0FC0
3F0FC0
3F0FC0
FF0FF0
FF0FF0
ENDCHAR

STARTCHAR ograve
ENCODING 242
SWIDTH 1131 0
DWIDTH 22 0
BBX 20 14 1 0
BITMAP
0FC000
03F000
007C00
000000
000000
1FFF80
7FFFE0
7E07E0
FC03F0
FC03F0
FC03F0
7E07E0
7FFFE0
1FFF80
ENDCHAR

STARTCHAR oacute
ENCODING 243
SWIDTH 1131 0
DWIDTH 22 0
BBX 20 14 1 0
BITMAP
003F00
00FC00
03E000
000000
000000
1FFF80
7FFFE0
7E07E0
FC03F0
FC03F0
FC03F0
7E07E0
7FFFE0
1FFF80
ENDCHAR

STARTCHAR ocircumflex
ENCODING 244
SWIDTH 1131 0
DWIDTH 22 0
BBX 20 14 1 0
BITMAP
03FC00
0FFF00
3F0FC0
000000
000000
1FFF80
7FFFE0
7E07E0
FC03F0
FC03F0
FC03F0
7E07E0
7FFFE0
1FFF80
ENDCHAR

STARTCHAR otilde
ENCODING 245
SWIDTH 1131 0
DWIDTH 22 0
BBX 20 14 1 0
BITMAP
0FC0C0
3FFFC0
303F00
000000
000000
1FFF80
7FFFE0
7E07E0
FC03F0
FC03F0
FC03F0
7E07E0
7FFFE0
1FFF80
ENDCHAR

STARTCHAR odieresis
ENCODING 246
SWIDTH 1131 0
DWIDTH 22 0
BBX 20 14 1 0
BITMAP
7C03E0
FE07F0
7C03E0
000000
000000
1FFF80
7FFFE0
7E07E0
FC03F0
FC03F0
FC03F0
7E07E0
7FFFE0
1FFF80
ENDCHAR

STARTCHAR divide
ENCODING 247
SWIDTH 1131 0
DWIDTH 22 0
BBX 20 10 1 0
BITMAP
00F000
03FC00
00F000
000000
FFFFF0
FFFFF0
000000
00F000
03FC00
00F000
ENDCHAR

STARTCHAR oslash
ENCODING 248
SWIDTH 1131 0
DWIDTH 22 0
BBX 20 9 1 0
BITMAP
1FFEF0
7FFFC0
7E0FE0
FC3FF0
FCF3F0
FFC3F0
7F07E0
3FFFE0
EFFF80
ENDCHAR

STARTCHAR ugrave
ENCODING 249
SWIDTH 1131 0
DWIDTH 22 0
BBX 20 14 1 0
BITMAP
0FC000
03F000
007C00
000000
000000
FF3FC0
FF3FC0
3F0FC0
3F0FC0
3F0FC0
3F0FC0
3F3FC0
3FFFF0
0FCFF0
ENDCHAR

STARTCHAR uacute
ENCODING 250
SWIDTH 1131 0
DWIDTH 22 0
BBX 20 14 1 0
BITMAP
003F00
00FC00
03E000
000000
000000
FF3FC0
FF3FC0
3F0FC0
3F0FC0
3F0FC0
3F0FC0
3F3FC0
3FFFF0
0FCFF0
ENDCHAR

STARTCHAR ucircumflex
ENCODING 251
SWIDTH 1131 0
DWIDTH 22 0
BBX 20 14 1 0
BITMAP
03FC00
0FFF00
3F0FC0
000000
000000
FF3FC0
FF3FC0
3F0FC0
3F0FC0
3F0FC0
3F0FC0
3F3FC0
3FFFF0
0FCFF0
ENDCHAR

STARTCHAR udieresis
ENCODING 252
SWIDTH 1131 0
DWIDTH 22 0
BBX 20 14 1 0
BITMAP
7C03E0
FE07F0
7C03E0
000000
000000
FF3FC0
FF3FC0
3F0FC0
3F0FC0
3F0FC0
3F0FC0
3F3FC0
3FFFF0
0FCFF0
ENDCHAR

STARTCHAR yacute
ENCODING 253
SWIDTH 1131 0
DWIDTH 22 0
BBX 20 18 1 -4
BITMAP
001F80
007E00
01F000
000000
000000
FE07F0
FE07F0
3F0FC0
1F0F80
0F9F00
07FE00
03FC00
01F800
00F800
00F000
01F000
07F800
07F800
ENDCHAR

STARTCHAR thorn
ENCODING 254
SWIDTH 1131 0
DWIDTH 22 0
BBX 20 16 1 -4
BITMAP
FF0000
FF0000
3F0000
3F3F80
3FFFE0
3F87E0
3F03F0
3F03F0
3F03F0
3F87E0
3FFFE0
3F3F80
3F0000
3F0000
FFF000
FFF000
ENDCHAR

STARTCHAR ydieresis
ENCODING 255
SWIDTH 1131 0
DWIDTH 22 0
BBX 20 18 1 -4
BITMAP
7C03E0
FE07F0
7C03E0
000000
000000
FE07F0
FE07F0
3F0FC0
1F0F80
0F9F00
07FE00
03FC00
01F800
00F800
00F000
01F000
07F800
07F800
ENDCHAR
ENDFONT
